<svg xmlns="http://www.w3.org/2000/svg" viewBox="0 0 24 24"><defs><style>.cls-1{fill:#3fa9f5;}.cls-2{fill:#fff;}</style></defs><g id="Camada_2" data-name="Camada 2"><g id="ICONS"><circle class="cls-1" cx="12" cy="12" r="12"/><path class="cls-2" d="M19.93,10.22h-.71a1.09,1.09,0,0,1-1.06-1.09,1,1,0,0,1,.35-.77L19,7.92a1.15,1.15,0,0,0,0-1.63l-1-1a1.12,1.12,0,0,0-.81-.33,1.14,1.14,0,0,0-.81.33l-.44.43a1,1,0,0,1-.79.36A1.09,1.09,0,0,1,14,5V4.29a1.16,1.16,0,0,0-1.14-1.16H11.42a1.16,1.16,0,0,0-1.14,1.16V5A1.09,1.09,0,0,1,9.19,6.06a1,1,0,0,1-.77-.35L8,5.27a1.17,1.17,0,0,0-1.63,0l-1,1a1.14,1.14,0,0,0,0,1.62l.44.44a1,1,0,0,1,.36.78A1.08,1.08,0,0,1,5,10.22H4.32a1.16,1.16,0,0,0-1.17,1.13v1.42A1.16,1.16,0,0,0,4.32,13.9H5A1.08,1.08,0,0,1,6.09,15a1.06,1.06,0,0,1-.36.78l-.44.43a1.14,1.14,0,0,0,0,1.62l1,1a1.13,1.13,0,0,0,.81.32A1.2,1.2,0,0,0,8,18.86l.45-.45a1,1,0,0,1,.77-.34,1.08,1.08,0,0,1,1.09,1.05v.71A1.17,1.17,0,0,0,11.41,21h1.42A1.16,1.16,0,0,0,14,19.83v-.71a1.09,1.09,0,0,1,1.89-.7l.44.44a1.14,1.14,0,0,0,.81.33,1.12,1.12,0,0,0,.81-.33l1-1a1.15,1.15,0,0,0,0-1.63l-.45-.44a1,1,0,0,1-.35-.77,1.08,1.08,0,0,1,1.06-1.09h.71A1.08,1.08,0,0,0,21,12.77V11.35A1.07,1.07,0,0,0,19.93,10.22Zm-4.09,1.84h0a3.72,3.72,0,0,1-7.44,0h0a3.72,3.72,0,0,1,7.44,0Z"/></g></g></svg>