<svg xmlns="http://www.w3.org/2000/svg" viewBox="0 0 24 24"><defs><style>.cls-1{fill:#3fa9f5;}.cls-2{fill:#fff;}</style></defs><g id="Camada_2" data-name="Camada 2"><g id="ICONS"><circle class="cls-1" cx="12" cy="12" r="12"/><path class="cls-2" d="M19,5.78c0,.81-3.13,1.47-7,1.47S5,6.59,5,5.78s3.13-1.47,7-1.47S19,5,19,5.78Z"/><path class="cls-2" d="M12,8.23c-3.85,0-7-.69-7-1.47V9.7c0,.78,3.15,1.47,7,1.47s7-.69,7-1.47V6.76C19,7.54,15.85,8.23,12,8.23Z"/><path class="cls-2" d="M12,12.15c-3.85,0-7-.69-7-1.47v2.93c0,.79,3.15,1.47,7,1.47s7-.68,7-1.47V10.68C19,11.46,15.85,12.15,12,12.15Z"/><path class="cls-2" d="M12,16.06c-3.85,0-7-.68-7-1.47v2.94C5,18.31,8.15,19,12,19s7-.69,7-1.47V14.59C19,15.38,15.85,16.06,12,16.06Z"/></g></g></svg>