<svg xmlns="http://www.w3.org/2000/svg" viewBox="0 0 24 24"><defs><style>.cls-1{fill:#fff;}</style></defs><g id="Camada_2" data-name="Camada 2"><g id="ICONS"><path class="cls-1" d="M.51,17.64H1.63a5.83,5.83,0,0,0,.91,2.18l-.78.78a.49.49,0,0,0,0,.71l1,1a.5.5,0,0,0,.71,0l.78-.78a6.09,6.09,0,0,0,2.17.91v1.12a.49.49,0,0,0,.49.49H8.17a.49.49,0,0,0,.48-.49V22.39a5.72,5.72,0,0,0,2.17-.91l.78.78a.5.5,0,0,0,.71,0l.95-1a.5.5,0,0,0,0-.71l-.78-.78a5.94,5.94,0,0,0,.9-2.18H14.5a.49.49,0,0,0,.49-.49V15.81a.49.49,0,0,0-.49-.49H13.38a5.81,5.81,0,0,0-.9-2.18l.78-.78a.5.5,0,0,0,0-.71l-.95-1a.5.5,0,0,0-.71,0l-.78.78a5.82,5.82,0,0,0-2.17-.9V9.45A.49.49,0,0,0,8.17,9H6.83a.49.49,0,0,0-.49.49v1.13a5.7,5.7,0,0,0-2.17.9l-.78-.78a.5.5,0,0,0-.71,0l-1,1a.51.51,0,0,0,0,.71l.78.78a6.11,6.11,0,0,0-.9,2.18H.49a.49.49,0,0,0-.49.49v1.34A.52.52,0,0,0,.51,17.64ZM4.56,18l2.68-2.69-.76-.76a.13.13,0,0,1,.08-.22L9.75,14c.1,0,.2.08.17.18L9.6,17.4a.12.12,0,0,1-.22.07l-.75-.76L6,19.4a.24.24,0,0,1-.32,0l-1.1-1.1C4.46,18.25,4.46,18.11,4.56,18ZM14.82,12l1.07.44a.45.45,0,0,0,.56-.22l.37-.88a5.18,5.18,0,0,0,2,0l.36.88a.44.44,0,0,0,.57.22L20.82,12a.44.44,0,0,0,.22-.57l-.37-.88a4.81,4.81,0,0,0,1.42-1.42l.87.37a.43.43,0,0,0,.56-.22L24,8.16a.45.45,0,0,0-.22-.57l-.87-.36a5.23,5.23,0,0,0,0-2l.87-.37A.41.41,0,0,0,24,4.29l-.44-1.07A.41.41,0,0,0,23,3l-.87.36A4.89,4.89,0,0,0,20.67,2L21,1.06A.45.45,0,0,0,20.82.5L19.75.06a.46.46,0,0,0-.57.22l-.34.88a5.18,5.18,0,0,0-2,0l-.39-.9A.41.41,0,0,0,15.89,0L14.82.48A.42.42,0,0,0,14.6,1l.37.88a5.05,5.05,0,0,0-1.42,1.42L12.68,3a.44.44,0,0,0-.56.22l-.44,1.08a.43.43,0,0,0,.22.56l.87.37a5.18,5.18,0,0,0,0,2l-.87.39a.43.43,0,0,0-.22.57l.44,1.07a.41.41,0,0,0,.56.22l.87-.37A4.81,4.81,0,0,0,15,10.5l-.37.88A.43.43,0,0,0,14.82,12ZM16,5.25a.13.13,0,0,1,.22-.08l.68.69,1.8-1.81a.21.21,0,0,1,.29,0l1,1a.24.24,0,0,1,0,.3L18.18,7.18l.69.68a.14.14,0,0,1-.08.22l-2.92.3a.17.17,0,0,1-.17-.18Z"/></g></g></svg>