<svg xmlns="http://www.w3.org/2000/svg" viewBox="0 0 24 24"><defs><style>.cls-1{fill:#3fa9f5;}.cls-2{fill:#fff;}</style></defs><g id="Camada_2" data-name="Camada 2"><g id="ICONS"><circle class="cls-1" cx="12" cy="12" r="12"/><path class="cls-2" d="M13.13,12.49a.16.16,0,0,0-.22,0l-1.35,1.34L9.75,12l1.34-1.34a.17.17,0,0,0,0-.23l-.73-.73a.17.17,0,0,0-.23,0L8.79,11.05l-.87-.86a.14.14,0,0,0-.11,0,.21.21,0,0,0-.12,0l-2,2.05a4,4,0,0,0-1.18,2.83,3.91,3.91,0,0,0,.69,2.27L3.63,18.87a.17.17,0,0,0,0,.23l.85.86a.15.15,0,0,0,.11,0,.21.21,0,0,0,.12,0l1.53-1.54a4,4,0,0,0,2.26.69,4,4,0,0,0,2.84-1.18l2.05-2a.17.17,0,0,0,0-.23l-.86-.86,1.34-1.35a.16.16,0,0,0,0-.22ZM10.37,17a2.66,2.66,0,0,1-3.75-3.76L7.81,12l3.76,3.76ZM20,4.48l-.85-.85a.18.18,0,0,0-.12,0,.16.16,0,0,0-.11,0L17.34,5.16a4.06,4.06,0,0,0-2.26-.69,4,4,0,0,0-2.85,1.18l-2,2.05a.15.15,0,0,0,0,.23l5.46,5.47a.16.16,0,0,0,.12,0,.21.21,0,0,0,.11,0l2-2.05a4,4,0,0,0,.49-5.11L20,4.71A.15.15,0,0,0,20,4.48Zm-3,5.9-1.19,1.19L12,7.82l1.19-1.2A2.66,2.66,0,1,1,17,10.38Z"/></g></g></svg>