<svg xmlns="http://www.w3.org/2000/svg" viewBox="0 0 24 24"><defs><style>.cls-1{fill:#3fa9f5;}.cls-2{fill:#fff;}</style></defs><g id="Camada_2" data-name="Camada 2"><g id="ICONS"><circle class="cls-1" cx="12" cy="12" r="12"/><path class="cls-2" d="M19.45,7a.5.5,0,0,0,.7,0l.7-.67a.46.46,0,0,0,0-.68L19.27,4.09a.5.5,0,0,0-.7,0l-.71.67a.46.46,0,0,0,0,.67l.07.07L17.44,6A8.83,8.83,0,0,0,13,4.21V3.35h.55a.49.49,0,0,0,.49-.48V1.47A.49.49,0,0,0,13.58,1H10.42a.49.49,0,0,0-.49.47v1.4a.49.49,0,0,0,.49.48H11v.86A9,9,0,0,0,6.56,6L6.07,5.5l.07-.07a.47.47,0,0,0,0-.67l-.71-.67a.5.5,0,0,0-.7,0L3.15,5.61a.46.46,0,0,0,0,.68l.7.67a.5.5,0,0,0,.7,0l.07-.07.49.48a8.14,8.14,0,0,0-1.88,5.2A8.62,8.62,0,0,0,12,21a8.62,8.62,0,0,0,8.77-8.43,8.2,8.2,0,0,0-1.88-5.2l.49-.48ZM12,19.05a6.61,6.61,0,0,1-6.73-6.47A6.61,6.61,0,0,1,12,6.11a6.61,6.61,0,0,1,6.73,6.47A6.61,6.61,0,0,1,12,19.05Z"/><path class="cls-2" d="M16.23,10.17a.55.55,0,0,0-.7-.2l-3,1.43a1.39,1.39,0,0,0-1.19.08,1.26,1.26,0,0,0-.47,1.76,1.38,1.38,0,0,0,1.83.45,1.29,1.29,0,0,0,.64-1l2.77-1.87A.5.5,0,0,0,16.23,10.17Zm-3.67,2.55a.58.58,0,0,1-.71.4.56.56,0,0,1-.42-.68.6.6,0,0,1,.71-.41A.57.57,0,0,1,12.56,12.72Z"/><path class="cls-2" d="M13.9,9.37a.56.56,0,0,0,.74-.2.51.51,0,0,0-.21-.72.56.56,0,0,0-.74.2.53.53,0,0,0,0,.53A.65.65,0,0,0,13.9,9.37Z"/><path class="cls-2" d="M12,8.88a.53.53,0,0,0,.54-.53.55.55,0,0,0-1.09,0,.44.44,0,0,0,.07.26A.53.53,0,0,0,12,8.88Z"/><path class="cls-2" d="M12,16.29h0a.54.54,0,0,0-.54.53.46.46,0,0,0,.07.26.56.56,0,0,0,.47.26.54.54,0,0,0,.54-.54A.52.52,0,0,0,12,16.29Z"/><path class="cls-2" d="M14,15.77a.51.51,0,0,0-.19.72h0a.55.55,0,0,0,.75.18.51.51,0,0,0,.19-.71A.57.57,0,0,0,14,15.77Z"/><path class="cls-2" d="M16.1,14.21a.57.57,0,0,0-.75.2.51.51,0,0,0,0,.53.61.61,0,0,0,.2.19.57.57,0,0,0,.75-.2A.53.53,0,0,0,16.1,14.21Z"/><path class="cls-2" d="M8.14,12.63a.54.54,0,0,0-.55-.53.55.55,0,0,0-.54.54.59.59,0,0,0,.07.26.59.59,0,0,0,.48.26A.52.52,0,0,0,8.14,12.63Z"/><path class="cls-2" d="M7.94,14.29a.51.51,0,0,0-.2.71h0a.57.57,0,0,0,.76.19.54.54,0,0,0,.19-.73A.57.57,0,0,0,7.94,14.29Z"/><path class="cls-2" d="M15.85,12.55a.53.53,0,0,0,.08.27.56.56,0,0,0,.48.25.53.53,0,0,0,.54-.52.55.55,0,0,0-1.1,0Z"/><path class="cls-2" d="M7.9,11a.54.54,0,0,0,.74-.2h0a.5.5,0,0,0-.21-.71.56.56,0,0,0-.75.2.51.51,0,0,0,0,.52A.55.55,0,0,0,7.9,11Z"/><path class="cls-2" d="M10,9.41h0a.5.5,0,0,0,.19-.71.55.55,0,0,0-.75-.19h0a.51.51,0,0,0-.19.72h0A.57.57,0,0,0,10,9.41Z"/><path class="cls-2" d="M10.1,15.81a.56.56,0,0,0-.74.2.53.53,0,0,0,0,.53.65.65,0,0,0,.21.19.56.56,0,0,0,.74-.2A.51.51,0,0,0,10.1,15.81Z"/></g></g></svg>