<svg xmlns="http://www.w3.org/2000/svg" viewBox="0 0 24 24"><defs><style>.cls-1{fill:#3fa9f5;}.cls-2{fill:#fff;}</style></defs><g id="Camada_2" data-name="Camada 2"><g id="ICONS"><circle class="cls-1" cx="12" cy="12" r="12"/><path class="cls-2" d="M6.57,10.14h-1A6.81,6.81,0,0,1,9.31,5.85l-.87-2a8.87,8.87,0,0,0-5.1,6.28H2l2.25,3.73Z"/><path class="cls-2" d="M13.82,5.58a6.89,6.89,0,0,1,4.31,3.73l2-.87a8.91,8.91,0,0,0-6.29-5.1V2L10.09,4.25l3.73,2.32v-1Z"/><path class="cls-2" d="M19.75,10.11l-2.32,3.73h1a6.85,6.85,0,0,1-3.73,4.3l.87,2a8.91,8.91,0,0,0,5.1-6.29H22Z"/><path class="cls-2" d="M10.12,18.42a6.79,6.79,0,0,1-4.28-3.73l-2,.87a8.87,8.87,0,0,0,6.28,5.1V22l3.72-2.25-3.72-2.32v1Z"/></g></g></svg>