<svg xmlns="http://www.w3.org/2000/svg" viewBox="0 0 24 24"><defs><style>.cls-1{fill:#3fa9f5;}.cls-2{fill:#fff;}.cls-3{font-size:8.91px;fill:#f40000;stroke:#ed1c24;stroke-miterlimit:10;font-family:ErasITC-Bold, Eras Bold ITC;font-weight:700;}</style></defs><g id="Camada_2" data-name="Camada 2"><g id="ICONS"><circle class="cls-1" cx="12" cy="12" r="12"/><path class="cls-2" d="M7.35,4.36h10a2.17,2.17,0,0,1,2.15,2.2V16.8A2.17,2.17,0,0,1,17.36,19h-10a2.17,2.17,0,0,1-2.14-2.2V6.56A2.17,2.17,0,0,1,7.35,4.36Z"/><path class="cls-1" d="M13.54,7.84h2a.54.54,0,0,1,.53.55v3.39a.54.54,0,0,1-.53.54h-2a.54.54,0,0,1-.53-.54V8.39A.54.54,0,0,1,13.54,7.84Z"/><path class="cls-1" d="M9.19,7.84h2a.55.55,0,0,1,.54.55v6a.55.55,0,0,1-.54.55h-2a.54.54,0,0,1-.53-.55v-6A.54.54,0,0,1,9.19,7.84Z"/><text class="cls-3" transform="translate(13.99 19.77) scale(1.02 1)">X</text></g></g></svg>