<svg xmlns="http://www.w3.org/2000/svg" viewBox="0 0 23.92 24"><defs><style>.cls-1{fill:#fff;}</style></defs><g id="Camada_2" data-name="Camada 2"><g id="ICONS"><path class="cls-1" d="M20.36,10.88a3.54,3.54,0,0,0-2.4.95V9a3,3,0,0,0-3-3H12.16A3.57,3.57,0,1,0,6.92,6H3V6A3,3,0,0,0,0,9H0v3.12a1.69,1.69,0,0,0,1,1.91,1.33,1.33,0,0,0,1.62-.67,1.84,1.84,0,0,1,1.51-.79,1.86,1.86,0,1,1,0,3.72,1.88,1.88,0,0,1-1.53-.81A1.28,1.28,0,0,0,1,14.87a1.8,1.8,0,0,0-1,1.81V21H0a3,3,0,0,0,3,3H14.94a3,3,0,0,0,3-3V17.09a3.57,3.57,0,1,0,2.4-6.21Zm0,5.43a1.85,1.85,0,0,1-1.53-.81,1.29,1.29,0,0,0-1.57-.63,1.79,1.79,0,0,0-1,1.81V21a1.32,1.32,0,0,1-1.31,1.32H3A1.32,1.32,0,0,1,1.71,21h0V17.09a3.58,3.58,0,1,0,0-5.26V9h0A1.32,1.32,0,0,1,3,7.7h4.2l.31,0a1.61,1.61,0,0,0,1.6-1,1.35,1.35,0,0,0-.68-1.63,1.86,1.86,0,1,1,2.11,0A1.31,1.31,0,0,0,10,6.68a1.75,1.75,0,0,0,1.8,1h3.19A1.31,1.31,0,0,1,16.25,9v3.12a1.7,1.7,0,0,0,1,1.92,1.34,1.34,0,0,0,1.62-.68,1.87,1.87,0,0,1,1.52-.78,1.86,1.86,0,0,1,0,3.71Z"/></g></g></svg>