<svg xmlns="http://www.w3.org/2000/svg" viewBox="0 0 20.02 24"><defs><style>.cls-1{fill:#fff;}</style></defs><g id="Camada_2" data-name="Camada 2"><g id="ICONS"><path class="cls-1" d="M20,2.39C20,3.72,15.53,4.8,10,4.8S0,3.73,0,2.41,4.47,0,10,0,20,1.07,20,2.39Z"/><path class="cls-1" d="M10,6.4C4.5,6.4,0,5.29,0,4v4.8c0,1.28,4.5,2.39,10,2.39s10-1.13,10-2.41V4C20,5.27,15.5,6.4,10,6.4Z"/><path class="cls-1" d="M10,12.8c-5.5,0-10-1.11-10-2.39v4.8c0,1.28,4.5,2.4,10,2.39s10-1.13,10-2.41v-4.8C20,11.67,15.51,12.8,10,12.8Z"/><path class="cls-1" d="M10,19.2c-5.5,0-10-1.11-10-2.39v4.8C0,22.89,4.52,24,10,24s10-1.13,10-2.41v-4.8C20,18.07,15.51,19.2,10,19.2Z"/></g></g></svg>