<svg xmlns="http://www.w3.org/2000/svg" viewBox="0 0 24 24"><defs><style>.cls-1,.cls-3{fill:#3fa9f5;}.cls-2{fill:#fff;}.cls-3{stroke:#fff;stroke-miterlimit:10;stroke-width:0.75px;}</style></defs><g id="Camada_2" data-name="Camada 2"><g id="ICONS"><circle class="cls-1" cx="12" cy="12" r="12"/><path class="cls-2" d="M10.7,11.79a.26.26,0,0,1-.26.26h-1a.27.27,0,0,1-.26-.26v-1a.28.28,0,0,1,.26-.27h1a.27.27,0,0,1,.26.27Zm2.05-1a.26.26,0,0,0-.26-.26h-1a.27.27,0,0,0-.26.26v1a.28.28,0,0,0,.26.27h1a.27.27,0,0,0,.26-.27Zm2.05,0a.26.26,0,0,0-.26-.26h-1a.26.26,0,0,0-.26.26v1a.27.27,0,0,0,.26.27h1a.27.27,0,0,0,.26-.27v-1Zm-4.1,2a.26.26,0,0,0-.26-.26h-1a.27.27,0,0,0-.26.26v1a.28.28,0,0,0,.26.27h1a.27.27,0,0,0,.26-.27Zm2.05,0a.26.26,0,0,0-.26-.26h-1a.27.27,0,0,0-.26.26v1a.28.28,0,0,0,.26.27h1a.27.27,0,0,0,.26-.27Zm1.79-.26h-1a.26.26,0,0,0-.26.26v1a.27.27,0,0,0,.26.27h1a.27.27,0,0,0,.26-.27v-1A.24.24,0,0,0,14.54,12.55Zm-6.15,2h-1a.27.27,0,0,0-.27.26v1a.28.28,0,0,0,.27.27h1a.27.27,0,0,0,.26-.27v-1A.25.25,0,0,0,8.39,14.58Zm.26-1.77a.26.26,0,0,0-.26-.26h-1a.27.27,0,0,0-.27.26v1a.28.28,0,0,0,.27.27h1a.27.27,0,0,0,.26-.27Zm3.84,1.77h-1a.27.27,0,0,0-.26.26v1a.28.28,0,0,0,.26.27h1a.27.27,0,0,0,.26-.27v-1A.25.25,0,0,0,12.49,14.58Zm-2.05,0h-1a.27.27,0,0,0-.26.26v1a.28.28,0,0,0,.26.27h1a.27.27,0,0,0,.26-.27v-1A.25.25,0,0,0,10.44,14.58Zm6.13-2.53a.26.26,0,0,0,.26-.26v-1a.27.27,0,0,0-.26-.27h-1a.27.27,0,0,0-.26.27v1a.26.26,0,0,0,.26.26ZM6.51,18.25H14a3.78,3.78,0,0,1-.2-1.2H6.51a.35.35,0,0,1-.35-.35V9.58H17.82V12.9a4.05,4.05,0,0,1,1.18.18v-6a1.54,1.54,0,0,0-1.53-1.55H15.75v-1A.55.55,0,0,0,15.2,4h-.87a.56.56,0,0,0-.56.57v1H10.23v-1A.56.56,0,0,0,9.67,4H8.8a.55.55,0,0,0-.55.57v1H6.53A1.54,1.54,0,0,0,5,7.09V16.7A1.5,1.5,0,0,0,6.51,18.25Z"/><ellipse class="cls-3" cx="17.35" cy="16.5" rx="2.65" ry="2.5"/><rect class="cls-2" x="17.04" y="14.15" width="0.62" height="0.29"/><rect class="cls-2" x="19.39" y="16.34" width="0.59" height="0.31" transform="translate(36.19 -3.19) rotate(90)"/><rect class="cls-2" x="17.04" y="18.56" width="0.62" height="0.44"/><rect class="cls-2" x="14.63" y="16.27" width="0.59" height="0.47" transform="translate(31.43 1.57) rotate(90)"/><rect class="cls-2" x="16.44" y="15.61" width="1.64" height="0.47" transform="translate(33.1 -1.42) rotate(90)"/><rect class="cls-2" x="17.33" y="16.15" width="1.74" height="0.44" transform="translate(36.39 32.74) rotate(180)"/><ellipse class="cls-2" cx="17.27" cy="16.43" rx="0.39" ry="0.37"/></g></g></svg>