<svg xmlns="http://www.w3.org/2000/svg" viewBox="0 0 24 24"><defs><style>.cls-1{fill:#3fa9f5;}.cls-2{fill:#fff;stroke:#fff;stroke-miterlimit:10;stroke-width:0.25px;fill-rule:evenodd;}</style></defs><g id="Camada_2" data-name="Camada 2"><g id="ICONS"><circle class="cls-1" cx="12" cy="12" r="12"/><path class="cls-2" d="M18.22,5.18l.39.51a.3.3,0,0,1-.06.42l-.41.31a2.22,2.22,0,0,1,.14.63l.47.06a.31.31,0,0,1,.26.34l-.09.63a.3.3,0,0,1-.34.26l-.51-.07a2.15,2.15,0,0,1-.34.54l.28.37a.3.3,0,0,1-.06.43l-.5.38A.31.31,0,0,1,17,9.94l-.31-.41a2.44,2.44,0,0,1-.62.14l-.06.46a.31.31,0,0,1-.35.26l-.63-.08a.32.32,0,0,1-.26-.35l.07-.5a2.66,2.66,0,0,1-.53-.34L14,9.4a.3.3,0,0,1-.42-.06l-.39-.5a.31.31,0,0,1,.06-.43l.41-.31a2.23,2.23,0,0,1-.14-.62L13,7.41a.3.3,0,0,1-.26-.34l.09-.63a.31.31,0,0,1,.34-.26l.51.07A2.34,2.34,0,0,1,14,5.71l-.28-.37a.31.31,0,0,1,0-.43l.51-.38a.32.32,0,0,1,.43.06L15,5a1.81,1.81,0,0,1,.62-.14l.06-.47a.31.31,0,0,1,.34-.26l.63.09a.29.29,0,0,1,.26.34l-.07.51a2.15,2.15,0,0,1,.54.34l.38-.28A.29.29,0,0,1,18.22,5.18ZM10.05,17.34H8.64l-.2.66H7.17l1.51-4h1.37l1.51,4H10.25Zm-.26-.88L9.35,15l-.44,1.45ZM11.85,14h2.07a1.47,1.47,0,0,1,1,.32,1.23,1.23,0,0,1,.33.92,1.2,1.2,0,0,1-.37.95,1.57,1.57,0,0,1-1.12.35H13.1V18H11.85V14Zm1.25,1.72h.31a.83.83,0,0,0,.51-.12.45.45,0,0,0,.14-.32.48.48,0,0,0-.12-.33.73.73,0,0,0-.48-.13H13.1v.9ZM15.78,14H17v4H15.78V14ZM12.26,6a3.93,3.93,0,0,0-.84,0A4.4,4.4,0,0,0,9,7a5.07,5.07,0,0,0-1.64,3.06l-.07.42-.39.08a5.14,5.14,0,0,0-1,.29,3.72,3.72,0,0,0-.76.45,2.55,2.55,0,0,0-.46.47,3.06,3.06,0,0,0-.59,1.87,3.71,3.71,0,0,0,.58,1.95,3,3,0,0,0,.49.57,2.31,2.31,0,0,0,.63.42,2.6,2.6,0,0,0,.42.15V18a4,4,0,0,1-.85-.27,3.43,3.43,0,0,1-.92-.61,4.3,4.3,0,0,1-.68-.8A5,5,0,0,1,3,13.66,4.28,4.28,0,0,1,3.84,11a3.53,3.53,0,0,1,.66-.68,4.09,4.09,0,0,1,1-.6,5.17,5.17,0,0,1,.84-.28,6.16,6.16,0,0,1,2-3.4,5.45,5.45,0,0,1,3-1.27A5.34,5.34,0,0,1,13,4.84L13,5h0a1.38,1.38,0,0,0,0,.29,1.38,1.38,0,0,0-.33.2h0A1.43,1.43,0,0,0,12.26,6ZM19.8,8.67A3.07,3.07,0,0,1,20,9a5.4,5.4,0,0,1,.45.71,7,7,0,0,1,.71,3.25,6.18,6.18,0,0,1-.78,3.13,4.43,4.43,0,0,1-1.28,1.34A5.34,5.34,0,0,1,18,18V16.59a3.72,3.72,0,0,0,.65-.36,3.28,3.28,0,0,0,.95-1,4.71,4.71,0,0,0,.56-2.34,5.49,5.49,0,0,0-.53-2.51,3.34,3.34,0,0,0-.34-.52L19.1,9.7a1.22,1.22,0,0,0,0-.27,1.66,1.66,0,0,0,.32-.22h0A1.73,1.73,0,0,0,19.8,8.67ZM16,6a1.25,1.25,0,1,1-1.4,1.06A1.24,1.24,0,0,1,16,6Z"/></g></g></svg>