<svg xmlns="http://www.w3.org/2000/svg" viewBox="0 0 24 24"><defs><style>.cls-1{fill:#3fa9f5;}.cls-2{fill:#fff;}</style></defs><g id="Camada_2" data-name="Camada 2"><g id="ICONS"><circle class="cls-1" cx="12" cy="12" r="12"/><g id="_5151e0c8492e5103c096af88a51f9b27" data-name="5151e0c8492e5103c096af88a51f9b27"><path class="cls-2" d="M6.41,13.51l3.17-1.15v0L6.41,11.19V9.91l4.84,2v.94l-4.84,2Zm11.17,1.38V16H11.86V14.89ZM18.66,5H5.34A1.29,1.29,0,0,0,4,6.23V18.49a1.29,1.29,0,0,0,1.34,1.23H18.66A1.29,1.29,0,0,0,20,18.49V6.23A1.3,1.3,0,0,0,18.66,5Zm0,13.48H5.34V8.07H18.66V18.48Z"/></g></g></g></svg>