<svg xmlns="http://www.w3.org/2000/svg" viewBox="0 0 24 24"><defs><style>.cls-1{fill:#fff;}</style></defs><g id="Camada_2" data-name="Camada 2"><g id="ICONS"><path class="cls-1" d="M22.55,9.53H21.6a1.46,1.46,0,0,1-1.42-1.46,1.35,1.35,0,0,1,.47-1l.61-.6a1.53,1.53,0,0,0,0-2.18l-1.4-1.39a1.57,1.57,0,0,0-1.09-.43,1.63,1.63,0,0,0-1.1.43l-.58.59A1.44,1.44,0,0,1,16,3.94a1.46,1.46,0,0,1-1.47-1.42V1.57A1.56,1.56,0,0,0,13,0h-1.9A1.56,1.56,0,0,0,9.59,1.57v1A1.46,1.46,0,0,1,8.12,3.94a1.39,1.39,0,0,1-1-.47l-.6-.6a1.57,1.57,0,0,0-1.1-.43,1.59,1.59,0,0,0-1.09.43L2.88,4.25a1.53,1.53,0,0,0,0,2.17L3.47,7A1.42,1.42,0,0,1,4,8.07,1.45,1.45,0,0,1,2.53,9.53H1.58A1.55,1.55,0,0,0,0,11.05V13a1.55,1.55,0,0,0,1.58,1.51h.95A1.46,1.46,0,0,1,4,15.93,1.4,1.4,0,0,1,3.47,17l-.59.58a1.55,1.55,0,0,0,0,2.18l1.39,1.39a1.57,1.57,0,0,0,1.1.43,1.59,1.59,0,0,0,1.09-.43l.61-.6a1.37,1.37,0,0,1,1-.47,1.46,1.46,0,0,1,1.47,1.42v.95A1.55,1.55,0,0,0,11.11,24H13a1.56,1.56,0,0,0,1.53-1.57v-.95a1.45,1.45,0,0,1,2.53-.94l.59.59a1.58,1.58,0,0,0,2.19,0l1.4-1.39a1.55,1.55,0,0,0,0-2.18l-.62-.6a1.35,1.35,0,0,1-.47-1,1.46,1.46,0,0,1,1.43-1.46h.95A1.46,1.46,0,0,0,24,13v-1.9A1.44,1.44,0,0,0,22.55,9.53ZM19,12h0A7,7,0,0,1,5,12H5a7,7,0,0,1,14,0Z"/></g></g></svg>