<svg xmlns="http://www.w3.org/2000/svg" viewBox="0 0 20 24"><defs><style>.cls-1{fill:#fff;}</style></defs><g id="Camada_2" data-name="Camada 2"><g id="ICONS"><path class="cls-1" d="M3.86,2.7A15.84,15.84,0,0,1,10,1.6a15.84,15.84,0,0,1,6.14,1.1c1.6.7,2.19,1.5,2.19,2.1s-.59,1.4-2.19,2.1A15.84,15.84,0,0,1,10,8,15.84,15.84,0,0,1,3.86,6.9c-1.6-.7-2.19-1.5-2.19-2.1S2.26,3.4,3.86,2.7ZM18.33,7.52V9.6c0,.6-.59,1.4-2.19,2.1A15.84,15.84,0,0,1,10,12.8a15.84,15.84,0,0,1-6.14-1.1c-1.6-.7-2.19-1.5-2.19-2.1V7.52a8.68,8.68,0,0,0,1.5.84A17.62,17.62,0,0,0,10,9.6a17.62,17.62,0,0,0,6.83-1.24A8.47,8.47,0,0,0,18.33,7.52ZM20,4.8C20,3.19,18.54,2,16.83,1.24A17.62,17.62,0,0,0,10,0,17.62,17.62,0,0,0,3.17,1.24C1.46,2,0,3.19,0,4.8V19.2C0,20.81,1.46,22,3.17,22.76A17.62,17.62,0,0,0,10,24a17.62,17.62,0,0,0,6.83-1.24C18.54,22,20,20.81,20,19.2Zm-1.67,7.52V14.4c0,.6-.59,1.4-2.19,2.1A15.84,15.84,0,0,1,10,17.6a15.84,15.84,0,0,1-6.14-1.1c-1.6-.7-2.19-1.5-2.19-2.1V12.32a8.68,8.68,0,0,0,1.5.84A17.62,17.62,0,0,0,10,14.4a17.62,17.62,0,0,0,6.83-1.24A8.47,8.47,0,0,0,18.33,12.32Zm0,4.8V19.2c0,.6-.59,1.4-2.19,2.1A15.84,15.84,0,0,1,10,22.4a15.84,15.84,0,0,1-6.14-1.1c-1.6-.7-2.19-1.5-2.19-2.1V17.12a8.68,8.68,0,0,0,1.5.84A17.62,17.62,0,0,0,10,19.2,17.62,17.62,0,0,0,16.83,18,8.68,8.68,0,0,0,18.33,17.12Z"/></g></g></svg>