<svg xmlns="http://www.w3.org/2000/svg" xmlns:xlink="http://www.w3.org/1999/xlink" viewBox="0 0 24 24"><defs><style>.cls-1{fill:#3fa9f5;}.cls-2{fill:#e3e3e3;}.cls-3{fill:#231f20;opacity:0.1;isolation:isolate;}.cls-4{fill:#fff;}.cls-5{fill:#b3b3b3;}.cls-6{fill:url(#Gradiente_sem_nome_2);}.cls-7{fill:none;}.cls-8{fill:#ff931e;}</style><linearGradient id="Gradiente_sem_nome_2" x1="-610.52" y1="381.54" x2="-610.45" y2="381.54" gradientTransform="matrix(253.16, 0, 0, -174.83, 154561.54, 66719.68)" gradientUnits="userSpaceOnUse"><stop offset="0" stop-opacity="0.1"/><stop offset="1" stop-opacity="0.2"/></linearGradient></defs><g id="Camada_2" data-name="Camada 2"><g id="ICONS"><circle class="cls-1" cx="12" cy="12" r="12"/><path class="cls-2" d="M19.31,18.84H4.47a1.08,1.08,0,0,1-1.06-1.11V6.57A1.08,1.08,0,0,1,4.47,5.46H19.31a1.08,1.08,0,0,1,1.06,1.11V17.73a1.08,1.08,0,0,1-1.06,1.11Z"/><path class="cls-3" d="M5.53,18.84l6.34-5.32.05-.28L5.37,8.33V18.6Z"/><path class="cls-4" d="M4.47,18.84a1.07,1.07,0,0,1-1.06-1.11V6.55c0-.61.46-.72,1.06-.72s1.06.12,1.06.72V18.84Z"/><path class="cls-5" d="M4.47,6c.75,0,.9.24.9.57V18.68h-.9a.94.94,0,0,1-.91-.95V6.55c0-.35.15-.57.91-.57Zm0-.15c-.6,0-1.06.12-1.06.72V17.73a1.07,1.07,0,0,0,1.06,1.11H5.53V6.55c0-.61-.47-.72-1.06-.72Z"/><path class="cls-4" d="M19.31,18.84H18.25V6.52c0-.61.47-.69,1.06-.69s1.06.08,1.06.69V17.75a1.07,1.07,0,0,1-1.06,1.09Z"/><path class="cls-6" d="M14.77,18.84,3.49,7l.6.25,7.84,5.88L20.37,6.7V17.75a1.07,1.07,0,0,1-1.06,1.09Z"/><path class="cls-4" d="M19.31,6c.68,0,.91.15.91.54V17.75a.93.93,0,0,1-.91.94H18.4V6.52c0-.41.23-.54.91-.54Zm0-.15c-.59,0-1.06.08-1.06.69V18.85h1.06a1.08,1.08,0,0,0,1.06-1.1V6.52c0-.61-.47-.69-1.06-.69Z"/><path class="cls-4" d="M11.87,13.52l-8-6A1.15,1.15,0,0,1,3.6,5.92a1.08,1.08,0,0,1,1.52-.24l6.77,5.13,6.82-5.19a1,1,0,0,1,1.48.25A1.13,1.13,0,0,1,20,7.42l-8.08,6.1Z"/><path class="cls-4" d="M19.31,5.56h0a.91.91,0,0,1,.74.39,1,1,0,0,1-.19,1.33l-8,6.05L4,7.34A1,1,0,0,1,3.72,6a1,1,0,0,1,.76-.4A.86.86,0,0,1,5,5.81l6.75,5.11.09.06.09-.06,6.81-5.19a.94.94,0,0,1,.54-.17Zm0-.16a1,1,0,0,0-.62.21l-6.82,5.18L5.1,5.67a1,1,0,0,0-.63-.21,1.07,1.07,0,0,0-.88.46,1.16,1.16,0,0,0,.27,1.55l8,6.07,8.06-6.12a1.15,1.15,0,0,0,.24-1.55,1,1,0,0,0-.86-.47Z"/><rect class="cls-7" x="3.4" y="3.98" width="16.99" height="16.99"/><polygon class="cls-8" points="13.38 10.75 16.92 10.75 16.92 7.92 22.58 12.16 16.92 17.12 16.92 14.29 13.38 14.29 13.38 10.75"/></g></g></svg>