<svg xmlns="http://www.w3.org/2000/svg" viewBox="0 0 24 24"><defs><style>.cls-1{fill:#3fa9f5;}.cls-2{fill:#fff;}</style></defs><g id="Camada_2" data-name="Camada 2"><g id="ICONS"><circle class="cls-1" cx="12" cy="12" r="12"/><path class="cls-2" d="M19.72,5.11A.39.39,0,0,0,19.45,5H5a.39.39,0,0,0-.27.11.35.35,0,0,0-.1.27l1.3,13.71a.36.36,0,0,0,.27.31L12.13,21h.2l5.92-1.59a.36.36,0,0,0,.27-.31l1.3-13.71A.35.35,0,0,0,19.72,5.11ZM7.43,14.39l2.58.68V8.13h1.48v9L7.43,16.11ZM17.05,12l-.39,4.26-3.69,1v-1.6l2.49-.64.1-1.31L13,14V8.13H17.4l-.12,1.39H14.45V12.3Z"/></g></g></svg>