<svg xmlns="http://www.w3.org/2000/svg" viewBox="0 0 24 24"><defs><style>.cls-1{fill:#3fa9f5;}.cls-2{fill:#fff;}</style></defs><g id="Camada_2" data-name="Camada 2"><g id="ICONS"><circle class="cls-1" cx="12" cy="12" r="12"/><path class="cls-2" d="M11.86,3h0l-.19,0a4.11,4.11,0,0,0-1.27.37,3.53,3.53,0,0,0-1.09.77A3.88,3.88,0,0,0,8.16,6,3.76,3.76,0,0,0,8,7.26a3.94,3.94,0,0,0,1.26,2.82l.25.24L7.89,13a2.06,2.06,0,0,0-.89.14,1.69,1.69,0,0,0-1.06,1.42,1.73,1.73,0,0,0,0,.64,1.65,1.65,0,0,0,.65,1,2,2,0,0,0,.65.29,1.88,1.88,0,0,0,.71,0,1.71,1.71,0,0,0,.67-.25,1.88,1.88,0,0,0,.55-.5A1.74,1.74,0,0,0,9.49,15a1.61,1.61,0,0,0-.11-.82.93.93,0,0,0-.13-.28l-.06-.12,2.32-3.84a1.82,1.82,0,0,0,.16-.28l-.2-.06a1.37,1.37,0,0,1-.26-.08A2.77,2.77,0,0,1,10.4,9a2.38,2.38,0,0,1-.56-.79,2.29,2.29,0,0,1-.18-1.5A2.26,2.26,0,0,1,10,5.8a2.85,2.85,0,0,1,.61-.68,2.67,2.67,0,0,1,1.62-.54,2.52,2.52,0,0,1,1.91.8,2.33,2.33,0,0,1,.52.77,2.93,2.93,0,0,1,.21.91,3.67,3.67,0,0,1-.12.84l1.38.38.15,0a3.61,3.61,0,0,0,.14-1.72A3.87,3.87,0,0,0,16,5.31a4.21,4.21,0,0,0-.78-1.07,4.11,4.11,0,0,0-2-1.12A2.35,2.35,0,0,0,12.87,3l-.28,0Zm.36,2.48a1.79,1.79,0,0,0-.67.14A1.83,1.83,0,0,0,11,6a1.59,1.59,0,0,0-.39.63,1.62,1.62,0,0,0-.07.88,1.73,1.73,0,0,0,.27.68,1.64,1.64,0,0,0,.55.5A1.8,1.8,0,0,0,12.42,9a1.29,1.29,0,0,1,.09.16L14.72,13a.7.7,0,0,0,.12.18A2.76,2.76,0,0,1,16,12.43a2.63,2.63,0,0,1,1.28-.07,2.47,2.47,0,0,1,1.15.52,2.57,2.57,0,0,1-2,4.53,2.63,2.63,0,0,1-1.25-.49l-.26-.2-.09-.12a1.72,1.72,0,0,0-.22.2l-.93.92a4.54,4.54,0,0,0,1,.77,4,4,0,0,0,1.2.43l.43.08h.77l.55-.1a4.21,4.21,0,0,0,2.89-2.21A4.24,4.24,0,0,0,21,15.5a4.57,4.57,0,0,0,0-1.43,4,4,0,0,0-.49-1.29,4.28,4.28,0,0,0-.87-1,4.15,4.15,0,0,0-2.51-1,4.45,4.45,0,0,0-1.41.14l-.33.1-1.6-2.74A1.76,1.76,0,0,0,14,7.5a1.65,1.65,0,0,0-.26-1.2,1.69,1.69,0,0,0-.86-.7A2.09,2.09,0,0,0,12.22,5.48ZM6.67,10.76a4.08,4.08,0,0,0-2,1.06,4.06,4.06,0,0,0-1.2,2.1l-.08.48v.74l0,.22a2.14,2.14,0,0,0,.08.4A3.76,3.76,0,0,0,4,16.94a4.15,4.15,0,0,0,.84,1,4.28,4.28,0,0,0,2.26,1,4.74,4.74,0,0,0,1.5-.09A4.24,4.24,0,0,0,10,18.24a4,4,0,0,0,1.54-1.82,7.24,7.24,0,0,0,.27-.9h.36l2.46,0,.39,0a2,2,0,0,0,.5.62,1.74,1.74,0,0,0,.62.32,2,2,0,0,0,.69.08,1.88,1.88,0,0,0,1-.4,1.68,1.68,0,0,0,.63-1.08,1.81,1.81,0,0,0,0-.66,1.61,1.61,0,0,0-.27-.6,1.84,1.84,0,0,0-.8-.64,1.71,1.71,0,0,0-.7-.13,2.09,2.09,0,0,0-.7.15,1.81,1.81,0,0,0-.85.74L15,14.1l-.82,0-2.23,0-.84,0-1,0,.06.34A2.35,2.35,0,0,1,10,16a2.41,2.41,0,0,1-.78.9A2.46,2.46,0,0,1,8,17.32a2.64,2.64,0,0,1-2.5-1A2.45,2.45,0,0,1,5,14.74a2.61,2.61,0,0,1,.46-1.38,2.4,2.4,0,0,1,.63-.64,2.67,2.67,0,0,1,.8-.38l.18-.06Z"/></g></g></svg>