<svg xmlns="http://www.w3.org/2000/svg" viewBox="0 0 24 24"><defs><style>.cls-1{fill:#3fa9f5;}.cls-2{fill:#fff;}</style></defs><g id="Camada_2" data-name="Camada 2"><g id="ICONS"><circle class="cls-1" cx="12" cy="12" r="12"/><path class="cls-2" d="M10.89,21a11.9,11.9,0,0,1-4.54-1.16,3.06,3.06,0,0,1-1.24-1.11L5,18.5V4.77l.08-.17c.38-.77,1.6-1.47,3.29-1.88a16.93,16.93,0,0,1,2.08-.36,22.93,22.93,0,0,1,3.21,0A10.33,10.33,0,0,1,18,3.73a2.9,2.9,0,0,1,.88.92l.11.24V18.57l-.09.18a2.35,2.35,0,0,1-.32.43c-.8.85-2.52,1.48-4.76,1.74-.46.06-2.45.1-2.92.07Zm3.22-5.88s-.27-.25-.58-.52l-.6-.51s0-.07.13-.12a2,2,0,0,0,.37-.32,1.9,1.9,0,0,0,.51-1.38,1.87,1.87,0,0,0-.53-1.38,1.7,1.7,0,0,0-1.34-.51,1.8,1.8,0,0,0-1.82,1.38,2.78,2.78,0,0,0,0,1.15,1.81,1.81,0,0,0,1.42,1.3.54.54,0,0,1,.42.22c.09.1.28.31.42.45l.26.27h.68a3.2,3.2,0,0,0,.66,0Zm-2.32-1.9a.6.6,0,0,1-.32-.34,1.11,1.11,0,0,1-.08-.57,1.13,1.13,0,0,1,.08-.58.61.61,0,0,1,.55-.39c.37,0,.58.15.69.58a1.19,1.19,0,0,1-.34,1.28.69.69,0,0,1-.58,0Zm-3,1c.71-.14,1.11-.55,1.11-1.14s-.26-.84-1-1.16c-.41-.18-.56-.3-.56-.43s.14-.24.3-.27a2.14,2.14,0,0,1,.84.15l.22.09v-.94l-.23-.05a4.69,4.69,0,0,0-.78,0,1.76,1.76,0,0,0-.76.08,1.1,1.1,0,0,0-.78,1.11c0,.5.27.82.93,1.1.39.17.55.3.55.45,0,.32-.53.36-1.09.08l-.31-.15a1.68,1.68,0,0,0,0,.48c0,.5,0,.5.09.54A3.84,3.84,0,0,0,8.79,14.19Zm8.12-.46v-.42H15.62v-2.9H14.49v3.74h2.42Zm-4-7.4a11,11,0,0,0,2.73-.47c.74-.25,1.18-.55,1.28-.88a.38.38,0,0,0,0-.31c-.24-.62-1.56-1.1-3.58-1.29a17.81,17.81,0,0,0-3.27.05,6.31,6.31,0,0,0-2.73.85c-.92.73.05,1.53,2.31,1.9a14.89,14.89,0,0,0,3.28.15Z"/></g></g></svg>